<?xml version="1.0"?><!DOCTYPE svg  PUBLIC '-//W3C//DTD SVG 1.1//EN'  'http://www.w3.org/Graphics/SVG/1.1/DTD/svg11.dtd'><svg xmlns="http://www.w3.org/2000/svg" width="1024pt" height="1024pt" viewBox="0 0 1024 1024" version="1.1"><path fill="#ffffff" opacity="1.00" d=" M 0.00 0.00 L 1024.00 0.00 L 1024.00 1024.00 L 0.00 1024.00 L 0.00 0.00 M 534.10 92.10 C 528.35 96.36 525.67 105.54 530.54 111.44 C 536.74 119.15 544.91 125.54 549.11 134.72 C 551.20 143.75 555.54 152.05 557.89 161.03 C 552.10 155.76 547.96 144.31 538.26 147.70 C 536.30 144.32 535.04 140.44 532.15 137.69 C 533.46 142.77 536.22 147.28 538.71 151.85 C 536.52 151.03 534.27 150.37 531.97 149.94 C 530.39 154.04 534.71 156.40 537.20 158.80 C 543.86 164.26 550.99 169.64 559.32 172.20 C 556.33 178.06 558.03 184.65 563.77 187.98 C 562.78 189.40 561.79 190.81 560.81 192.23 C 552.00 190.48 542.96 189.19 533.96 189.75 C 525.29 191.22 519.16 198.31 512.89 203.89 C 492.96 222.35 477.66 245.10 464.91 268.94 C 459.55 279.67 450.83 288.50 446.82 299.93 C 444.38 306.40 441.82 313.02 441.71 320.03 C 441.81 328.07 445.25 335.54 447.85 343.01 C 450.71 351.84 456.19 359.43 460.33 367.65 C 467.34 383.78 475.99 399.26 487.03 413.00 C 490.21 417.79 495.44 420.87 497.91 426.17 C 499.47 429.49 504.03 430.26 504.87 434.02 C 505.88 438.37 509.68 440.97 512.59 444.02 C 510.02 445.97 505.94 447.25 505.70 451.02 C 505.44 455.38 508.26 459.22 508.27 463.58 C 500.08 457.67 495.65 447.86 487.95 441.35 C 483.97 442.74 481.29 446.64 477.40 448.41 C 474.98 450.05 471.78 447.96 469.40 449.30 C 466.03 452.87 466.90 458.20 465.63 462.60 C 463.93 465.18 461.08 466.74 459.13 469.12 C 455.82 472.65 454.17 477.42 450.74 480.84 C 442.64 481.46 433.61 479.59 426.39 484.39 C 421.19 488.02 416.01 492.21 409.49 493.05 C 407.51 485.72 405.04 478.54 402.80 471.29 C 401.83 464.59 403.17 456.99 398.80 451.21 C 396.25 447.70 391.37 447.28 388.44 444.44 C 386.76 439.47 384.57 434.67 380.86 430.87 C 383.49 424.55 375.85 422.05 375.88 416.27 C 368.60 411.91 369.69 401.73 363.40 396.58 C 357.12 390.51 355.30 381.60 350.41 374.59 C 345.59 367.23 338.73 361.53 333.54 354.46 C 327.51 346.18 319.69 339.17 315.06 329.92 C 312.74 326.08 314.56 321.30 312.72 317.29 C 311.31 313.34 307.80 310.79 305.60 307.37 C 303.76 303.36 303.69 298.63 301.02 294.99 C 299.09 292.19 294.48 293.47 293.39 296.40 C 291.91 300.14 294.04 303.95 294.97 307.55 C 287.27 303.61 286.24 293.96 281.29 287.66 C 279.71 286.01 275.68 286.21 275.80 289.07 C 276.44 292.12 277.59 295.05 278.14 298.13 C 273.79 294.16 271.70 288.48 267.93 284.05 C 266.41 282.00 261.99 281.23 261.18 284.28 C 261.77 288.99 265.10 292.80 266.15 297.41 C 261.86 294.83 260.08 289.81 256.19 286.82 C 254.35 285.40 250.80 285.50 250.04 288.05 C 252.32 293.30 255.96 297.83 258.30 303.06 C 255.12 302.15 251.29 299.84 248.23 302.27 C 246.43 303.47 246.23 306.73 248.73 307.18 C 253.72 308.71 257.34 312.72 262.25 314.41 C 263.05 316.77 263.45 319.91 266.25 320.74 C 273.17 323.25 279.42 327.29 285.19 331.81 C 293.90 345.73 301.39 360.43 308.91 375.04 C 312.46 383.07 313.56 391.87 315.85 400.29 C 317.85 412.83 324.42 424.06 331.49 434.38 C 331.58 436.97 329.18 439.27 329.67 441.99 C 330.35 446.63 334.02 449.81 336.78 453.29 C 337.75 455.92 336.04 459.01 337.32 461.65 C 338.56 464.02 340.94 465.45 342.67 467.44 C 342.94 470.16 340.70 472.75 341.50 475.54 C 342.29 478.28 344.42 480.37 345.34 483.05 C 344.70 487.03 342.95 490.89 344.04 494.99 C 342.89 500.63 341.60 506.29 341.56 512.11 C 341.42 519.42 337.58 525.91 336.45 533.00 C 336.05 541.86 345.85 546.05 347.25 554.38 C 343.84 554.11 340.08 552.91 337.10 555.21 C 333.77 557.88 329.99 553.02 326.41 555.22 C 321.18 557.33 315.55 557.43 310.77 554.25 C 305.08 555.28 302.07 561.93 296.96 564.64 C 294.96 563.88 291.76 564.21 291.40 561.47 C 289.17 552.98 286.75 543.26 278.87 538.20 C 273.22 534.41 264.64 537.16 262.62 543.75 C 259.64 553.27 263.11 563.14 264.88 572.57 C 255.62 578.37 245.37 585.15 242.47 596.41 C 238.99 607.98 242.63 619.81 243.58 631.40 C 245.34 632.99 247.87 633.88 248.76 636.27 C 256.69 653.63 277.78 666.28 296.75 659.98 C 304.38 658.14 312.13 655.49 318.01 650.08 C 325.77 645.90 333.89 641.50 339.25 634.25 C 343.05 629.01 349.79 627.47 355.70 625.86 C 355.99 629.57 355.53 633.51 356.99 637.02 C 358.56 640.35 362.49 640.90 365.42 642.49 C 367.47 645.27 369.86 647.79 373.29 648.82 C 377.26 660.91 375.40 674.32 380.86 686.07 C 382.96 689.94 387.59 691.34 390.09 694.89 C 397.01 702.45 401.37 711.95 409.34 718.59 C 409.84 725.03 411.44 731.41 415.10 736.94 C 419.28 742.80 415.74 750.04 417.46 756.49 C 418.38 760.50 420.93 763.82 423.26 767.11 C 420.35 770.90 420.28 775.35 423.79 778.77 C 420.89 782.08 421.91 785.82 424.21 789.10 C 424.23 797.54 425.50 805.91 427.54 814.11 C 428.09 816.89 431.10 818.32 431.69 821.12 C 434.42 830.79 438.50 839.99 441.60 849.54 C 444.89 859.72 443.72 870.58 445.41 881.03 C 446.05 886.33 447.30 891.62 447.07 896.99 C 445.74 901.36 444.29 906.83 439.32 908.29 C 431.81 910.92 423.85 912.13 416.64 915.62 C 408.33 916.65 400.14 918.56 391.85 919.80 C 385.65 919.61 380.63 923.93 374.35 923.58 C 373.07 927.55 376.72 930.55 379.20 933.09 C 390.70 933.93 402.28 931.60 413.83 931.91 C 415.77 933.06 415.78 936.23 418.16 936.94 C 424.06 938.56 429.51 935.08 434.72 932.89 C 443.21 930.25 453.03 933.74 460.94 928.90 C 464.11 925.77 467.45 922.74 470.39 919.42 C 479.13 886.23 480.57 851.31 477.05 817.24 C 480.92 814.05 478.54 809.41 477.69 805.41 C 475.89 799.37 478.57 792.36 474.11 787.16 C 477.45 780.11 476.99 770.30 470.75 764.95 C 475.34 761.22 478.92 754.60 473.51 749.83 C 476.44 742.36 473.49 734.64 473.25 727.02 C 472.48 715.07 466.72 704.07 465.96 692.12 C 466.52 685.51 467.19 678.92 467.43 672.30 C 478.95 666.87 489.30 659.26 497.15 649.14 C 501.96 641.46 512.47 645.18 518.98 639.98 C 531.94 628.14 549.65 624.27 565.03 616.61 C 569.07 618.07 572.27 621.19 576.32 622.67 C 584.25 625.65 593.01 624.45 600.90 621.95 C 603.64 624.37 606.39 626.78 609.25 629.06 C 612.27 623.41 616.28 618.11 618.16 611.96 C 614.98 601.00 605.01 594.13 597.70 586.01 C 607.58 588.94 618.30 590.16 628.46 588.15 C 634.80 585.50 641.50 584.05 648.06 582.10 C 652.25 581.02 654.29 576.35 658.62 575.65 C 665.97 573.87 673.37 571.38 678.77 565.85 C 686.40 564.85 693.46 561.43 701.13 560.44 C 714.68 557.32 727.72 552.20 740.33 546.40 C 750.20 543.14 760.19 539.61 768.73 533.63 C 771.43 529.04 774.97 524.98 777.37 520.22 C 780.22 514.55 778.99 508.07 779.21 501.99 C 780.13 486.24 773.30 470.71 762.74 459.26 C 759.92 456.05 757.23 452.72 754.78 449.22 C 741.17 428.84 720.07 414.06 697.04 406.17 C 698.34 402.62 698.24 398.85 697.20 395.25 C 704.23 395.08 712.22 396.68 718.36 392.36 C 720.73 390.84 721.15 387.97 720.67 385.41 C 716.23 384.54 711.88 385.92 707.78 387.47 C 712.04 383.48 717.14 379.70 719.07 373.96 C 720.08 370.51 715.54 369.55 713.24 371.02 C 708.43 373.75 706.13 379.13 702.42 383.01 C 704.25 377.17 708.01 372.21 710.94 366.89 C 717.08 356.86 727.48 350.78 735.14 342.15 C 741.04 335.62 739.74 324.43 732.63 319.35 C 726.56 315.39 718.82 316.11 712.04 317.38 C 696.31 320.50 681.04 328.14 670.62 340.55 C 666.14 345.73 662.15 351.57 656.24 355.25 C 650.25 359.08 643.06 360.01 636.52 362.49 C 627.32 365.81 618.13 370.13 611.20 377.21 C 607.16 381.26 604.66 387.24 606.10 392.97 C 607.18 397.54 610.71 400.92 614.23 403.77 C 618.96 407.42 620.99 413.58 626.06 416.91 C 628.99 419.33 633.59 420.22 634.67 424.34 C 637.66 431.96 647.75 432.87 650.45 440.52 C 653.94 447.05 660.38 451.22 664.59 457.22 C 655.94 454.62 647.35 451.68 639.07 448.07 C 636.26 447.13 635.36 444.13 634.15 441.76 C 624.41 421.15 609.93 403.16 593.41 387.59 C 579.50 374.06 569.78 356.67 554.53 344.44 C 548.99 340.60 547.48 333.63 543.36 328.61 C 539.90 323.37 534.54 319.74 528.41 318.41 C 528.89 314.76 528.31 311.12 526.12 308.10 C 529.79 306.21 532.25 302.93 534.89 299.90 C 548.00 289.95 558.76 276.96 566.42 262.41 C 569.06 257.51 572.70 253.25 575.46 248.42 C 578.62 242.09 586.32 239.89 589.49 233.55 C 592.39 227.40 595.92 221.51 600.22 216.23 C 604.86 211.51 611.31 208.05 613.29 201.27 C 615.54 200.82 617.99 200.44 619.59 198.61 C 623.75 194.45 628.22 190.47 631.47 185.52 C 634.55 179.32 642.43 177.72 645.63 171.58 C 647.97 167.39 645.15 162.73 642.46 159.50 C 633.87 149.66 622.52 142.70 610.87 137.06 C 602.70 133.04 595.80 126.81 590.44 119.51 C 580.32 106.15 565.92 96.02 549.84 91.25 C 544.75 89.96 538.75 89.04 534.10 92.10 Z"/><path fill="#000000" opacity="1.00" d=" M 534.10 92.10 C 538.75 89.04 544.75 89.96 549.84 91.25 C 565.92 96.02 580.32 106.15 590.44 119.51 C 595.80 126.81 602.70 133.04 610.87 137.06 C 622.52 142.70 633.87 149.66 642.46 159.50 C 645.15 162.73 647.97 167.39 645.63 171.58 C 642.43 177.72 634.55 179.32 631.47 185.52 C 628.22 190.47 623.75 194.45 619.59 198.61 C 617.99 200.44 615.54 200.82 613.29 201.27 C 611.31 208.05 604.86 211.51 600.22 216.23 C 595.92 221.51 592.39 227.40 589.49 233.55 C 586.32 239.89 578.62 242.09 575.46 248.42 C 572.70 253.25 569.06 257.51 566.42 262.41 C 558.76 276.96 548.00 289.95 534.89 299.90 C 532.25 302.93 529.79 306.21 526.12 308.10 C 528.31 311.12 528.89 314.76 528.41 318.41 C 534.54 319.74 539.90 323.37 543.36 328.61 C 547.48 333.63 548.99 340.60 554.53 344.44 C 569.78 356.67 579.50 374.06 593.41 387.59 C 609.93 403.16 624.41 421.15 634.15 441.76 C 635.36 444.13 636.26 447.13 639.07 448.07 C 647.35 451.68 655.94 454.62 664.59 457.22 C 660.38 451.22 653.94 447.05 650.45 440.52 C 647.75 432.87 637.66 431.96 634.67 424.34 C 633.59 420.22 628.99 419.33 626.06 416.91 C 620.99 413.58 618.96 407.42 614.23 403.77 C 610.71 400.92 607.18 397.54 606.10 392.97 C 604.66 387.24 607.16 381.26 611.20 377.21 C 618.13 370.13 627.32 365.81 636.52 362.49 C 643.06 360.01 650.25 359.08 656.24 355.25 C 662.15 351.57 666.14 345.73 670.62 340.55 C 681.04 328.14 696.31 320.50 712.04 317.38 C 718.82 316.11 726.56 315.39 732.63 319.35 C 739.74 324.43 741.04 335.62 735.14 342.15 C 727.48 350.78 717.08 356.86 710.94 366.89 C 708.01 372.21 704.25 377.17 702.42 383.01 C 706.13 379.13 708.43 373.75 713.24 371.02 C 715.54 369.55 720.08 370.51 719.07 373.96 C 717.14 379.70 712.04 383.48 707.78 387.47 C 711.88 385.92 716.23 384.54 720.67 385.41 C 721.15 387.97 720.73 390.84 718.36 392.36 C 712.22 396.68 704.23 395.08 697.20 395.25 C 698.24 398.85 698.34 402.62 697.04 406.17 C 720.07 414.06 741.17 428.84 754.78 449.22 C 757.23 452.72 759.92 456.05 762.74 459.26 C 773.30 470.71 780.13 486.24 779.21 501.99 C 778.99 508.07 780.22 514.55 777.37 520.22 C 774.97 524.98 771.43 529.04 768.73 533.63 C 760.19 539.61 750.20 543.14 740.33 546.40 C 727.72 552.20 714.68 557.32 701.13 560.44 C 693.46 561.43 686.40 564.85 678.77 565.85 C 673.37 571.38 665.97 573.87 658.62 575.65 C 654.29 576.35 652.25 581.02 648.06 582.10 C 641.50 584.05 634.80 585.50 628.46 588.15 C 618.30 590.16 607.58 588.94 597.70 586.01 C 605.01 594.13 614.98 601.00 618.16 611.96 C 616.28 618.11 612.27 623.41 609.25 629.06 C 606.39 626.78 603.64 624.37 600.90 621.95 C 593.01 624.45 584.25 625.65 576.32 622.67 C 572.27 621.19 569.07 618.07 565.03 616.61 C 549.65 624.27 531.94 628.14 518.98 639.98 C 512.47 645.18 501.96 641.46 497.15 649.14 C 489.30 659.26 478.95 666.87 467.43 672.30 C 467.19 678.92 466.52 685.51 465.96 692.12 C 466.72 704.07 472.48 715.07 473.25 727.02 C 473.49 734.64 476.44 742.36 473.51 749.83 C 478.92 754.60 475.34 761.22 470.75 764.95 C 476.99 770.30 477.45 780.11 474.11 787.16 C 478.57 792.36 475.89 799.37 477.69 805.41 C 478.54 809.41 480.92 814.05 477.05 817.24 C 480.57 851.31 479.13 886.23 470.39 919.42 C 467.45 922.74 464.11 925.77 460.94 928.90 C 453.03 933.74 443.21 930.25 434.72 932.89 C 429.51 935.08 424.06 938.56 418.16 936.94 C 415.78 936.23 415.77 933.06 413.83 931.91 C 402.28 931.60 390.70 933.93 379.20 933.09 C 376.72 930.55 373.07 927.55 374.35 923.58 C 380.63 923.93 385.65 919.61 391.85 919.80 C 400.14 918.56 408.33 916.65 416.64 915.62 C 423.85 912.13 431.81 910.92 439.32 908.29 C 444.29 906.83 445.74 901.36 447.07 896.99 C 447.30 891.62 446.05 886.33 445.41 881.03 C 443.72 870.58 444.89 859.72 441.60 849.54 C 438.50 839.99 434.42 830.79 431.69 821.12 C 431.10 818.32 428.09 816.89 427.54 814.11 C 425.50 805.91 424.23 797.54 424.21 789.10 C 421.91 785.82 420.89 782.08 423.79 778.77 C 420.28 775.35 420.35 770.90 423.26 767.11 C 420.93 763.82 418.38 760.50 417.46 756.49 C 415.74 750.04 419.28 742.80 415.10 736.94 C 411.44 731.41 409.84 725.03 409.34 718.59 C 401.37 711.95 397.01 702.45 390.09 694.89 C 387.59 691.34 382.96 689.94 380.86 686.07 C 375.40 674.32 377.26 660.91 373.29 648.82 C 369.86 647.79 367.47 645.27 365.42 642.49 C 362.49 640.90 358.56 640.35 356.99 637.02 C 355.53 633.51 355.99 629.57 355.70 625.86 C 349.79 627.47 343.05 629.01 339.25 634.25 C 333.89 641.50 325.77 645.90 318.01 650.08 C 312.13 655.49 304.38 658.14 296.75 659.98 C 277.78 666.28 256.69 653.63 248.76 636.27 C 247.87 633.88 245.34 632.99 243.58 631.40 C 242.63 619.81 238.99 607.98 242.47 596.41 C 245.37 585.15 255.62 578.37 264.88 572.57 C 263.11 563.14 259.64 553.27 262.62 543.75 C 264.64 537.16 273.22 534.41 278.87 538.20 C 286.75 543.26 289.17 552.98 291.40 561.47 C 291.76 564.21 294.96 563.88 296.96 564.64 C 302.07 561.93 305.08 555.28 310.77 554.25 C 315.55 557.43 321.18 557.33 326.41 555.22 C 329.99 553.02 333.77 557.88 337.10 555.21 C 340.08 552.91 343.84 554.11 347.25 554.38 C 345.85 546.05 336.05 541.86 336.45 533.00 C 337.58 525.91 341.42 519.42 341.56 512.11 C 341.60 506.29 342.89 500.63 344.04 494.99 C 342.95 490.89 344.70 487.03 345.34 483.05 C 344.42 480.37 342.29 478.28 341.50 475.54 C 340.70 472.75 342.94 470.16 342.67 467.44 C 340.94 465.45 338.56 464.02 337.32 461.65 C 336.04 459.01 337.75 455.92 336.78 453.29 C 334.02 449.81 330.35 446.63 329.67 441.99 C 329.18 439.27 331.58 436.97 331.49 434.38 C 324.42 424.06 317.85 412.83 315.85 400.29 C 313.56 391.87 312.46 383.07 308.91 375.04 C 301.39 360.43 293.90 345.73 285.19 331.81 C 279.42 327.29 273.17 323.25 266.25 320.74 C 263.45 319.91 263.05 316.77 262.25 314.41 C 257.34 312.72 253.72 308.71 248.73 307.18 C 246.23 306.73 246.43 303.47 248.23 302.27 C 251.29 299.84 255.12 302.15 258.30 303.06 C 255.96 297.83 252.32 293.30 250.04 288.05 C 250.80 285.50 254.35 285.40 256.19 286.82 C 260.08 289.81 261.86 294.83 266.15 297.41 C 265.10 292.80 261.77 288.99 261.18 284.28 C 261.99 281.23 266.41 282.00 267.93 284.05 C 271.70 288.48 273.79 294.16 278.14 298.13 C 277.59 295.05 276.44 292.12 275.80 289.07 C 275.68 286.21 279.71 286.01 281.29 287.66 C 286.24 293.96 287.27 303.61 294.97 307.55 C 294.04 303.95 291.91 300.14 293.39 296.40 C 294.48 293.47 299.09 292.19 301.02 294.99 C 303.69 298.63 303.76 303.36 305.60 307.37 C 307.80 310.79 311.31 313.34 312.72 317.29 C 314.56 321.30 312.74 326.08 315.06 329.92 C 319.69 339.17 327.51 346.18 333.54 354.46 C 338.73 361.53 345.59 367.23 350.41 374.59 C 355.30 381.60 357.12 390.51 363.40 396.58 C 369.69 401.73 368.60 411.91 375.88 416.27 C 375.85 422.05 383.49 424.55 380.86 430.87 C 384.57 434.67 386.76 439.47 388.44 444.44 C 391.37 447.28 396.25 447.70 398.80 451.21 C 403.17 456.99 401.83 464.59 402.80 471.29 C 405.04 478.54 407.51 485.72 409.49 493.05 C 416.01 492.21 421.19 488.02 426.39 484.39 C 433.61 479.59 442.64 481.46 450.74 480.84 C 454.17 477.42 455.82 472.65 459.13 469.12 C 461.08 466.74 463.93 465.18 465.63 462.60 C 466.90 458.20 466.03 452.87 469.40 449.30 C 471.78 447.96 474.98 450.05 477.40 448.41 C 481.29 446.64 483.97 442.74 487.95 441.35 C 495.65 447.86 500.08 457.67 508.27 463.58 C 508.26 459.22 505.44 455.38 505.70 451.02 C 505.94 447.25 510.02 445.97 512.59 444.02 C 509.68 440.97 505.88 438.37 504.87 434.02 C 504.03 430.26 499.47 429.49 497.91 426.17 C 495.44 420.87 490.21 417.79 487.03 413.00 C 475.99 399.26 467.34 383.78 460.33 367.65 C 456.19 359.43 450.71 351.84 447.85 343.01 C 445.25 335.54 441.81 328.07 441.71 320.03 C 441.82 313.02 444.38 306.40 446.82 299.93 C 450.83 288.50 459.55 279.67 464.91 268.94 C 477.66 245.10 492.96 222.35 512.89 203.89 C 519.16 198.31 525.29 191.22 533.96 189.75 C 542.96 189.19 552.00 190.48 560.81 192.23 C 561.79 190.81 562.78 189.40 563.77 187.98 C 558.03 184.65 556.33 178.06 559.32 172.20 C 550.99 169.64 543.86 164.26 537.20 158.80 C 534.71 156.40 530.39 154.04 531.97 149.94 C 534.27 150.37 536.52 151.03 538.71 151.85 C 536.22 147.28 533.46 142.77 532.15 137.69 C 535.04 140.44 536.30 144.32 538.26 147.70 C 547.96 144.31 552.10 155.76 557.89 161.03 C 555.54 152.05 551.20 143.75 549.11 134.72 C 544.91 125.54 536.74 119.15 530.54 111.44 C 525.67 105.54 528.35 96.36 534.10 92.10 M 540.88 151.23 C 545.50 156.60 550.86 161.47 557.15 164.81 C 552.62 159.49 548.82 153.34 543.09 149.21 C 542.54 149.72 541.43 150.72 540.88 151.23 M 535.72 153.73 C 538.31 156.86 541.60 159.35 545.15 161.31 C 542.59 158.20 540.00 154.42 535.72 153.73 M 703.99 385.31 C 709.21 382.57 714.57 378.77 716.38 372.87 C 710.35 374.60 707.79 380.92 703.99 385.31 M 701.35 392.10 C 707.03 393.21 713.94 393.12 718.28 388.70 C 712.53 387.94 706.79 390.47 701.35 392.10 Z"/><path fill="#fdfdfb" opacity="1.00" d=" M 540.88 151.23 C 541.43 150.72 542.54 149.72 543.09 149.21 C 548.82 153.34 552.62 159.49 557.15 164.81 C 550.86 161.47 545.50 156.60 540.88 151.23 Z"/><path fill="#fdfdfb" opacity="1.00" d=" M 535.72 153.73 C 540.00 154.42 542.59 158.20 545.15 161.31 C 541.60 159.35 538.31 156.86 535.72 153.73 Z"/><path fill="#fdfdfb" opacity="1.00" d=" M 703.99 385.31 C 707.79 380.92 710.35 374.60 716.38 372.87 C 714.57 378.77 709.21 382.57 703.99 385.31 Z"/><path fill="#fdfdfb" opacity="1.00" d=" M 701.35 392.10 C 706.79 390.47 712.53 387.94 718.28 388.70 C 713.94 393.12 707.03 393.21 701.35 392.10 Z"/></svg>